<svg width="100%" height="" viewBox="0 0 161 24" fill="none" xmlns="http://www.w3.org/2000/svg">

<path fill-rule="evenodd" clip-rule="evenodd" d="M29.2064 5.55945V17.4145H32.4686V9.95209L36.0751 17.4145H38.7646L42.4393 9.95209V17.4145H45.7935V5.55945H41.7541L37.5102 13.4696H37.4216L33.4947 5.55945H29.2064Z" fill="#FFFDFD"/>
<path fill-rule="evenodd" clip-rule="evenodd" d="M49.2637 5.55945V17.4145H61.1739V14.4974H52.6179V12.8251H60.032V9.97583H52.6179V8.40873H60.8774V5.55945H49.2637Z" fill="#FFFDFD"/>
<path fill-rule="evenodd" clip-rule="evenodd" d="M71.4889 10.3829V12.9982L74.5909 13.1067V14.07C73.6331 14.6263 72.7434 14.8434 71.1821 14.8434C68.8778 14.8434 67.4632 13.6426 67.4632 11.4989C67.4632 9.35515 68.9119 8.14081 71.1719 8.14081C73.1797 8.14081 74.0251 8.6123 75.0034 9.83681L77.6725 8.42235C76.1896 6.2786 74.1819 5.27118 71.1958 5.27118C67.228 5.27118 64.1226 7.67271 64.1226 11.4887C64.1226 15.3047 67.2723 17.7062 71.1958 17.7062C72.6458 17.7456 74.0783 17.384 75.334 16.6615L75.7465 17.4111H77.8224V10.3829H71.4889Z" fill="#FFFDFD"/>
<path fill-rule="evenodd" clip-rule="evenodd" d="M88.4339 8.36467H88.9691L90.8848 12.9303H86.4262L88.4339 8.36467ZM86.2898 5.55609L80.8153 17.4281H84.4184L85.1956 15.6914H92.1768L92.9744 17.4281H96.5332L91.1712 5.55609H86.2898Z" fill="#FFFDFD"/>
<path fill-rule="evenodd" clip-rule="evenodd" d="M99.5364 5.55945V17.4314H102.891V14.8841H106.981C110.015 14.8841 112.251 13.0829 112.251 10.2743C112.251 7.46575 110.015 5.55945 106.981 5.55945H99.5364ZM102.891 8.43247H106.858C108.045 8.43247 108.904 9.1414 108.904 10.2777C108.904 11.414 108.058 12.0144 106.858 12.0144H102.901L102.891 8.43247Z" fill="#FFFDFD"/>
<path fill-rule="evenodd" clip-rule="evenodd" d="M115.363 5.55945V11.604C115.363 15.5285 117.896 17.7096 121.864 17.7096C125.832 17.7096 128.364 15.5217 128.364 11.604V5.55945H124.986V11.6243C124.986 13.724 124.005 14.9485 121.86 14.9485C119.716 14.9485 118.711 13.7274 118.711 11.6243V5.55945H115.363Z" fill="#FFFDFD"/>
<path fill-rule="evenodd" clip-rule="evenodd" d="M144.532 7.16729C142.524 5.70873 140.38 5.28134 137.964 5.28134C134.701 5.28134 132.032 6.48211 132.032 9.07699C132.032 11.37 133.628 12.3571 136.3 12.6555L140.636 13.127C141.434 13.1915 141.55 13.4052 141.55 13.8054C141.55 14.5992 140.186 14.9621 138.448 14.9621C136.519 14.9516 134.64 14.3525 133.065 13.2458L131.49 15.688C133.566 17.1669 135.53 17.7028 138.151 17.7028C141.938 17.7028 144.812 16.4817 144.812 13.7579C144.812 11.465 143.107 10.4134 140.319 10.0912L136.644 9.70451C135.891 9.61971 135.346 9.53152 135.346 9.02611C135.346 8.5207 135.826 8.06278 137.97 8.06278C139.934 8.06278 141.461 8.44947 142.92 9.45689L144.532 7.16729Z" fill="#FFFDFD"/>
<path fill-rule="evenodd" clip-rule="evenodd" d="M148.088 5.55945V17.4145H151.438V12.7166H157.622V17.4145H161V5.55945H157.622V9.88764H151.438V5.55945H148.088Z" fill="#FFFDFD"/>
<path d="M11.7739 23.4319C18.2765 23.4319 23.5478 18.1865 23.5478 11.716C23.5478 5.24542 18.2765 0 11.7739 0C5.27136 0 0 5.24542 0 11.716C0 18.1865 5.27136 23.4319 11.7739 23.4319Z" fill="white"/>
<path fill-rule="evenodd" clip-rule="evenodd" d="M19.764 7.06552V16.3698L15.8235 13.9275L19.764 7.06552Z" fill="#C50C02"/>
<path fill-rule="evenodd" clip-rule="evenodd" d="M11.7739 7.06552H19.764V7.44882L11.7739 16.3698L3.78369 7.44882V7.06552H11.7739Z" fill="#C50C02"/>
<path fill-rule="evenodd" clip-rule="evenodd" d="M3.78369 7.06552V16.3698L7.72424 13.9275L3.78369 7.06552Z" fill="#C50C02"/>
</svg>
